<?xml version="1.0" encoding="UTF-8"?>

<!-- Placeholder score page: 5 systems of 2 empty staves each. Not real music. -->
<svg xmlns="http://www.w3.org/2000/svg" width="1240" height="1754" viewBox="0 0 1240 1754">
  <rect width="1240" height="1754" fill="#fff"/>
  <text x="620" y="170" font-family="sans-serif" font-size="96" font-weight="bold" text-anchor="middle" fill="#bbb">PLACEHOLDER SCORE</text>
  <g stroke="#333" stroke-width="2">
    <line x1="100" y1="280" x2="1140" y2="280"/>
    <line x1="100" y1="298" x2="1140" y2="298"/>
    <line x1="100" y1="316" x2="1140" y2="316"/>
    <line x1="100" y1="334" x2="1140" y2="334"/>
    <line x1="100" y1="352" x2="1140" y2="352"/>
    <line x1="100" y1="412" x2="1140" y2="412"/>
    <line x1="100" y1="430" x2="1140" y2="430"/>
    <line x1="100" y1="448" x2="1140" y2="448"/>
    <line x1="100" y1="466" x2="1140" y2="466"/>
    <line x1="100" y1="484" x2="1140" y2="484"/>
    <line x1="100" y1="280" x2="100" y2="484" stroke-width="4"/>
    <line x1="1140" y1="280" x2="1140" y2="484"/>
  </g>
  <text x="100" y="266" font-family="sans-serif" font-size="24" fill="#999">System 1</text>
  <g stroke="#333" stroke-width="2">
    <line x1="100" y1="570" x2="1140" y2="570"/>
    <line x1="100" y1="588" x2="1140" y2="588"/>
    <line x1="100" y1="606" x2="1140" y2="606"/>
    <line x1="100" y1="624" x2="1140" y2="624"/>
    <line x1="100" y1="642" x2="1140" y2="642"/>
    <line x1="100" y1="702" x2="1140" y2="702"/>
    <line x1="100" y1="720" x2="1140" y2="720"/>
    <line x1="100" y1="738" x2="1140" y2="738"/>
    <line x1="100" y1="756" x2="1140" y2="756"/>
    <line x1="100" y1="774" x2="1140" y2="774"/>
    <line x1="100" y1="570" x2="100" y2="774" stroke-width="4"/>
    <line x1="1140" y1="570" x2="1140" y2="774"/>
  </g>
  <text x="100" y="556" font-family="sans-serif" font-size="24" fill="#999">System 2</text>
  <g stroke="#333" stroke-width="2">
    <line x1="100" y1="860" x2="1140" y2="860"/>
    <line x1="100" y1="878" x2="1140" y2="878"/>
    <line x1="100" y1="896" x2="1140" y2="896"/>
    <line x1="100" y1="914" x2="1140" y2="914"/>
    <line x1="100" y1="932" x2="1140" y2="932"/>
    <line x1="100" y1="992" x2="1140" y2="992"/>
    <line x1="100" y1="1010" x2="1140" y2="1010"/>
    <line x1="100" y1="1028" x2="1140" y2="1028"/>
    <line x1="100" y1="1046" x2="1140" y2="1046"/>
    <line x1="100" y1="1064" x2="1140" y2="1064"/>
    <line x1="100" y1="860" x2="100" y2="1064" stroke-width="4"/>
    <line x1="1140" y1="860" x2="1140" y2="1064"/>
  </g>
  <text x="100" y="846" font-family="sans-serif" font-size="24" fill="#999">System 3</text>
  <g stroke="#333" stroke-width="2">
    <line x1="100" y1="1150" x2="1140" y2="1150"/>
    <line x1="100" y1="1168" x2="1140" y2="1168"/>
    <line x1="100" y1="1186" x2="1140" y2="1186"/>
    <line x1="100" y1="1204" x2="1140" y2="1204"/>
    <line x1="100" y1="1222" x2="1140" y2="1222"/>
    <line x1="100" y1="1282" x2="1140" y2="1282"/>
    <line x1="100" y1="1300" x2="1140" y2="1300"/>
    <line x1="100" y1="1318" x2="1140" y2="1318"/>
    <line x1="100" y1="1336" x2="1140" y2="1336"/>
    <line x1="100" y1="1354" x2="1140" y2="1354"/>
    <line x1="100" y1="1150" x2="100" y2="1354" stroke-width="4"/>
    <line x1="1140" y1="1150" x2="1140" y2="1354"/>
  </g>
  <text x="100" y="1136" font-family="sans-serif" font-size="24" fill="#999">System 4</text>
  <g stroke="#333" stroke-width="2">
    <line x1="100" y1="1440" x2="1140" y2="1440"/>
    <line x1="100" y1="1458" x2="1140" y2="1458"/>
    <line x1="100" y1="1476" x2="1140" y2="1476"/>
    <line x1="100" y1="1494" x2="1140" y2="1494"/>
    <line x1="100" y1="1512" x2="1140" y2="1512"/>
    <line x1="100" y1="1572" x2="1140" y2="1572"/>
    <line x1="100" y1="1590" x2="1140" y2="1590"/>
    <line x1="100" y1="1608" x2="1140" y2="1608"/>
    <line x1="100" y1="1626" x2="1140" y2="1626"/>
    <line x1="100" y1="1644" x2="1140" y2="1644"/>
    <line x1="100" y1="1440" x2="100" y2="1644" stroke-width="4"/>
    <line x1="1140" y1="1440" x2="1140" y2="1644"/>
  </g>
  <text x="100" y="1426" font-family="sans-serif" font-size="24" fill="#999">System 5</text>
</svg>
